<?xml version="1.0" encoding="UTF-8"?>
<svg version="1.1" xmlns="http://www.w3.org/2000/svg" width="2362" height="2108">
<path d="M0 0 C1.06301771 -0.00088371 1.06301771 -0.00088371 2.14751053 -0.00178528 C87.54447874 -0.0516896 170.01412208 12.20721098 372.375 104.25 C373.41350098 104.89324219 374.45200195 105.53648438 375.52197266 106.19921875 C385.84941784 112.61875464 395.97655908 119.17802205 405.6796875 126.51171875 C408.42414053 128.57648493 411.22668675 130.53116816 414.0703125 132.45703125 C414.85946045 132.99569824 415.6486084 133.53436523 416.46166992 134.08935547 C417.99881412 135.13433895 419.5430377 136.16900319 421.0949707 137.19189453 C421.78421631 137.66353027 422.47346191 138.13516602 423.18359375 138.62109375 C423.80032959 139.03286865 424.41706543 139.44464355 425.05249023 139.86889648 C426.375 141.25 426.375 141.25 426.375 145.25 C424.77758408 147.3535738 424.77758408 147.3535738 422.49163818 149.64802551 C421.63076096 150.5216272 420.76988373 151.39522888 419.88291931 152.29530334 C418.91661626 153.25542377 417.95010216 154.21533182 416.98339844 155.17504883 C415.97429651 156.1912066 414.9660411 157.20820562 413.95857239 158.22598267 C411.21783799 160.98925564 408.46448057 163.73961866 405.70802975 166.48720384 C403.41030914 168.77982241 401.11880577 171.07860392 398.82728696 173.3774187 C393.42334808 178.79837005 388.00917652 184.2089478 382.58837891 189.61303711 C376.98977389 195.19470888 371.40776059 200.7925823 365.83379149 206.3988474 C361.05217623 211.20711866 356.26095734 216.00566457 351.46174836 220.79637545 C348.59338726 223.65979698 345.72875439 226.52671182 342.87310028 229.40281105 C340.18874175 232.10546471 337.4926069 234.79577851 334.7867794 237.47693253 C333.79397923 238.46470566 332.80545015 239.45679237 331.82148933 240.45337105 C330.48129998 241.80938314 329.12423538 243.1486558 327.76629639 244.4868927 C327.01042614 245.24217664 326.25455589 245.99746058 325.47578049 246.7756319 C323.375 248.25 323.375 248.25 321.257267 248.07119274 C318.69875437 246.95496853 316.40524152 245.58605601 314.03515625 244.109375 C312.98328125 243.45759277 311.93140625 242.80581055 310.84765625 242.13427734 C310.29223145 241.78661316 309.73680664 241.43894897 309.16455078 241.08074951 C307.41239105 239.98428739 305.655985 238.89493078 303.8984375 237.80712891 C298.55027992 234.4932365 293.21767901 231.15540843 287.90234375 227.7890625 C219.80690713 184.81246031 142.32643089 159.36684282 62.375 151.25 C61.25947754 151.13285645 60.14395508 151.01571289 58.99462891 150.89501953 C7.13252857 145.66137228 -45.6895477 149.78825003 -96.625 160.25 C-98.16655762 160.56227539 -98.16655762 160.56227539 -99.73925781 160.88085938 C-135.98145267 168.34755562 -171.778242 180.3479175 -205.23583984 196.12744141 C-207.7184651 197.29391503 -210.21185011 198.43487745 -212.70703125 199.57421875 C-251.64251563 217.52309733 -287.84800898 241.69287412 -320.625 269.25 C-321.40641357 269.90403809 -321.40641357 269.90403809 -322.20361328 270.57128906 C-335.6084647 281.81558005 -348.23252141 293.7777927 -360.625 306.125 C-361.50937744 307.00470459 -362.39375488 307.88440918 -363.30493164 308.79077148 C-368.28624309 313.78438597 -373.04027877 318.89222424 -377.625 324.25 C-378.64641129 325.40674024 -379.66981 326.561729 -380.6953125 327.71484375 C-388.18124324 336.19736102 -395.19137096 344.9542758 -401.95703125 354.02001953 C-403.6480505 356.28081723 -405.35462966 358.52925822 -407.0625 360.77734375 C-467.5692832 440.99030927 -500.15559802 541.1146448 -499.7421875 737.49609375 C-494.49022595 774.52104785 -485.2758102 810.09505103 -472.625 845.25 C-472.39596985 845.88746155 -472.1669397 846.5249231 -471.93096924 847.18170166 C-456.23167098 890.6784871 -433.98879561 938.77499931 -400.45361328 971.43701172 C-397.82396821 974.04418719 -395.32019789 976.7618975 -392.8034668 979.47753906 C-385.66425083 987.17791228 -378.31321058 994.64837425 -370.8269043 1002.01123047 C-370.11961182 1002.71006348 -369.41231934 1003.40889648 -368.68359375 1004.12890625 C-368.06798584 1004.7329126 -367.45237793 1005.33691895 -366.81811523 1005.95922852 C-364.95142292 1007.90904194 -363.1916047 1009.89814989 -361.43188477 1011.94311523 C-357.37972608 1016.6023621 -353.04366411 1020.93963307 -348.65625 1025.28125 C-347.8171106 1026.11660278 -346.97797119 1026.95195557 -346.11340332 1027.81262207 C-343.453031 1030.46087086 -340.78943987 1033.10584406 -338.125 1035.75 C-334.61162727 1039.23662601 -331.10168029 1042.72664926 -327.59375 1046.21875 C-326.79876099 1047.00544067 -326.00377197 1047.79213135 -325.18469238 1048.60266113 C-324.42700562 1049.35704468 -323.66931885 1050.11142822 -322.88867188 1050.88867188 C-322.23249878 1051.53960815 -321.57632568 1052.19054443 -320.90026855 1052.86120605 C-318.97629294 1054.88117916 -317.14850415 1056.93909536 -315.32580566 1059.04919434 C-311.76158871 1063.14697697 -308.00263726 1067.0003824 -304.1484375 1070.82421875 C-303.43689514 1071.53430084 -302.72535278 1072.24438293 -301.99224854 1072.97598267 C-300.46073478 1074.5037173 -298.92806785 1076.03029662 -297.39434814 1077.55581665 C-294.96149465 1079.97580168 -292.53187051 1082.39898843 -290.10302734 1084.82299805 C-284.94649396 1089.96815355 -279.78604213 1095.10936769 -274.625 1100.25 C-268.64016997 1106.21116247 -262.65699405 1112.17396572 -256.67803955 1118.14102173 C-254.2944133 1120.51820672 -251.9077752 1122.89233867 -249.52099609 1125.26635742 C-248.04770231 1126.73601575 -246.57455038 1128.20581632 -245.1015625 1129.67578125 C-244.11787689 1130.65171738 -244.11787689 1130.65171738 -243.11431885 1131.64736938 C-240.18681569 1134.57454083 -237.35791846 1137.5278608 -234.68454647 1140.68961239 C-229.43369306 1146.7138931 -223.72142985 1152.29165636 -218.06825256 1157.93373108 C-216.78901332 1159.21412373 -215.50999196 1160.49473409 -214.23116869 1161.7755422 C-210.73018482 1165.28068912 -207.22610289 1168.7827243 -203.72148621 1172.28423846 C-199.93707458 1176.06638389 -196.15554611 1179.85141016 -192.37364197 1183.63606262 C-184.96984458 1191.04430361 -177.56334987 1198.44984221 -170.15588052 1205.85441143 C-164.13501817 1211.87301422 -158.11513402 1217.89259378 -152.09594536 1223.91287041 C-151.23884159 1224.77012741 -150.38173781 1225.62738442 -149.4986612 1226.51061891 C-147.75740556 1228.25219428 -146.01615215 1229.9937719 -144.27490097 1231.73535173 C-127.95201783 1248.06108553 -111.62607257 1264.38375438 -95.29907703 1280.70537531 C-81.29375809 1294.70622658 -67.29106308 1308.70969764 -53.2902832 1322.71508789 C-37.02654426 1338.98417988 -20.76118231 1355.2516464 -4.49323171 1371.51652712 C-2.75810918 1373.2513311 -1.02298874 1374.98613717 0.71212959 1376.72094536 C1.99265495 1378.0012393 1.99265495 1378.0012393 3.29904951 1379.30739777 C9.31108272 1385.31856803 15.32195572 1391.33089695 21.33238029 1397.34367561 C28.6583768 1404.67247842 35.98615584 1411.99949333 43.31621664 1419.32423121 C47.05512909 1423.06051789 50.79324184 1426.79759533 54.52918625 1430.53684998 C57.95107192 1433.96172172 61.37526924 1437.38426464 64.80130178 1440.80498796 C66.03830099 1442.04087284 67.27446406 1443.27759532 68.50969028 1444.51525224 C74.02106342 1450.03663556 79.5292927 1455.4921884 85.46355826 1460.56435102 C89.39668149 1464.03286644 93.05043538 1467.79606022 96.74914551 1471.51062012 C97.66096856 1472.42229431 98.5727916 1473.3339685 99.51224566 1474.27326918 C102.0235235 1476.78425359 104.53169153 1479.29832378 107.0393393 1481.81293273 C109.75191816 1484.53191935 112.46743239 1487.2479716 115.18260193 1489.96437073 C119.88164431 1494.66629251 124.57890875 1499.36998432 129.27500916 1504.07484436 C136.07288937 1510.88531075 142.8740352 1517.69250862 149.67606336 1524.49883193 C160.72411489 1535.55394261 171.77029651 1546.61091954 182.81494141 1557.66943359 C183.475226 1558.330546 184.1355106 1558.99165841 184.81580383 1559.67280453 C190.17281525 1565.03656021 195.52973598 1570.40040646 200.88665295 1575.76425648 C205.56941242 1580.45306881 210.25220812 1585.14184495 214.93505859 1589.83056641 C215.59453359 1590.49086953 216.25400859 1591.15117266 216.93346769 1591.83148497 C227.93829836 1602.85001222 238.94510076 1613.86656779 249.95330572 1624.88172388 C256.73642001 1631.66931241 263.51775311 1638.45867118 270.29677951 1645.25034249 C274.94252275 1649.90452629 279.59004534 1654.55692822 284.238958 1659.20794618 C286.91869926 1661.88902912 289.59761082 1664.57092759 292.27430534 1667.25505257 C295.18043637 1670.16922022 298.09046483 1673.07946535 301.00085449 1675.98937988 C302.25923716 1677.253155 302.25923716 1677.253155 303.54304171 1678.54246092 C307.69939819 1682.69156639 311.93615457 1686.65573122 316.38550997 1690.48718703 C320.11591989 1693.79256424 323.60311687 1697.34463428 327.11962891 1700.87437439 C328.38557436 1702.1390382 328.38557436 1702.1390382 329.67709446 1703.42925078 C331.99815415 1705.74895666 334.31697634 1708.07087155 336.63483787 1710.39377224 C339.14278267 1712.90606058 341.65364275 1715.41543245 344.16413879 1717.9251709 C348.50639668 1722.26690601 352.84682891 1726.61045922 357.18600464 1730.95527458 C363.45962404 1737.23704249 369.73602331 1743.5160269 376.01309097 1749.7943489 C386.19867443 1759.98211763 396.38202561 1770.17211462 406.56396484 1780.36352539 C416.4511352 1790.25988348 426.33936179 1800.15518424 436.22900391 1810.04907227 C436.83923621 1810.65956729 437.44946852 1811.27006232 438.07819271 1811.8990572 C441.13974501 1814.9619146 444.20131801 1818.02475129 447.26290131 1821.0875777 C472.63681144 1846.47184407 498.00709541 1871.85973203 523.375 1897.25 C526.33661477 1895.82840697 528.41761716 1894.44975445 530.73144531 1892.10473633 C531.36600647 1891.46679642 532.00056763 1890.82885651 532.65435791 1890.17158508 C533.33045105 1889.48203232 534.00654419 1888.79247955 534.703125 1888.08203125 C535.76487946 1887.01247444 535.76487946 1887.01247444 536.8480835 1885.92131042 C539.11185772 1883.63973806 541.36885671 1881.35161658 543.625 1879.0625 C545.86766506 1876.79206125 548.11182159 1874.52315071 550.35906982 1872.25724792 C551.75552401 1870.84870969 553.14929967 1869.43750874 554.53985596 1868.02314758 C557.63270039 1864.89909171 560.75336183 1861.88166184 564.09667969 1859.02612305 C569.31467937 1854.52379283 574.12511163 1849.61136853 578.97689819 1844.7232666 C580.72474922 1842.962475 582.47585972 1841.20498136 584.2277832 1839.44824219 C587.94636351 1835.71831875 591.66098204 1831.98446563 595.375 1828.25 C599.68401429 1823.91726227 603.99470377 1819.58621847 608.30966187 1815.25939941 C610.0220917 1813.54055956 611.73144512 1811.81870188 613.44067383 1810.09667969 C618.25049165 1805.26447956 623.09361096 1800.55197597 628.27978516 1796.12036133 C632.62791568 1792.23886192 636.68716984 1788.04433223 640.79170227 1783.90846252 C642.50594586 1782.18127324 644.22345302 1780.4573868 645.94177246 1778.73425293 C649.58902441 1775.07566029 653.23231315 1771.41313719 656.875 1767.75 C661.1014063 1763.49986631 665.32949022 1759.25142938 669.56184387 1755.00721741 C671.24103635 1753.3216171 672.91715076 1751.63299859 674.59313965 1749.94421387 C675.63811418 1748.89560166 676.68323228 1747.84713249 677.72851562 1746.79882812 C678.6281604 1745.89394653 679.52780518 1744.98906494 680.45471191 1744.0567627 C682.62274943 1741.92689657 684.87773352 1739.92884372 687.17993164 1737.94506836 C691.70374232 1734.01977761 695.92308222 1729.8278047 700.14257812 1725.58007812 C700.97945663 1724.74173935 701.81633514 1723.90340057 702.67857361 1723.03965759 C704.48295689 1721.23148901 706.2861847 1719.42216677 708.08836365 1717.61180115 C710.94522718 1714.74209764 713.80519655 1711.87552426 716.6661377 1709.0098877 C722.73874486 1702.92623433 728.80709984 1696.83834765 734.875 1690.75 C741.42845587 1684.17446041 747.9826649 1677.59968187 754.54178762 1671.02979422 C757.83380348 1667.73203943 761.12188979 1664.4303973 764.40930176 1661.12805176 C766.14185929 1659.39185959 767.87455856 1657.65580885 769.60742188 1655.91992188 C770.7656974 1654.75389687 770.7656974 1654.75389687 771.94737244 1653.5643158 C772.67883987 1652.83277786 773.41030731 1652.10123993 774.16394043 1651.34753418 C774.78774345 1650.72151054 775.41154648 1650.09548691 776.05425262 1649.45049286 C777.99050267 1647.61457377 779.96204962 1645.87645746 781.98536724 1644.1392836 C786.48384725 1640.2094651 790.71395747 1636.04992744 794.92987156 1631.82096958 C795.75755475 1630.99473983 796.58523794 1630.16851008 797.43800244 1629.31724307 C799.72386542 1627.03438923 802.00749334 1624.74932729 804.29017468 1622.46329287 C806.77832931 1619.97259225 809.2693918 1617.48480265 811.76007742 1614.99663347 C816.12132566 1610.63899146 820.48071731 1606.27949905 824.83888626 1601.91877747 C831.31969347 1595.43418471 837.80336005 1588.95245653 844.28758775 1582.47128429 C855.86893268 1570.89520358 867.44741698 1559.316265 879.0246855 1547.73610762 C889.15616341 1537.60211404 899.28857038 1527.46905054 909.42190361 1517.33691216 C910.09410235 1516.6647898 910.7663011 1515.99266744 911.4588695 1515.30017773 C914.1875524 1512.57180617 916.91623883 1509.84343815 919.64493107 1507.11507593 C945.24148658 1481.52157933 970.83512514 1455.92516753 996.42745978 1430.32745032 C1019.16411583 1407.58604868 1041.90335558 1384.84723355 1064.64477539 1362.1105957 C1090.19570558 1336.56502029 1115.74501916 1311.01782982 1141.29172701 1285.46803182 C1144.01511887 1282.74431924 1146.73851468 1280.02061059 1149.46191216 1277.29690361 C1150.13247932 1276.62625736 1150.80304649 1275.95561112 1151.49393388 1275.26464226 C1161.61966529 1265.13777343 1171.74662991 1255.01213893 1181.87419319 1244.88710213 C1193.38981023 1233.37434353 1204.90364031 1221.85980117 1216.41511447 1210.3429001 C1222.85750674 1203.89757087 1229.30126905 1197.45361856 1235.74701628 1191.01164447 C1240.05274135 1186.70816192 1244.3566444 1182.4028629 1248.65907214 1178.09608384 C1251.11019479 1175.64258316 1253.5620918 1173.18987056 1256.01620305 1170.73935891 C1258.66176993 1168.09682794 1261.3042452 1165.45124306 1263.94596958 1162.80487156 C1264.70500559 1162.04817672 1265.4640416 1161.29148187 1266.2460787 1160.51185688 C1270.29901924 1156.44463182 1274.18162775 1152.28597912 1277.92214095 1147.92892855 C1279.71685091 1145.854956 1281.60603068 1143.89871239 1283.54846191 1141.9630127 C1284.29682816 1141.21471695 1285.0451944 1140.4664212 1285.8162384 1139.69544983 C1286.61228989 1138.90456467 1287.40834137 1138.1136795 1288.22851562 1137.29882812 C1289.08636154 1136.44244247 1289.94420746 1135.58605682 1290.82804871 1134.70372009 C1293.15893779 1132.37759938 1295.49200368 1130.05368839 1297.82592583 1127.7306118 C1300.28178436 1125.28481476 1302.73433813 1122.83570883 1305.18713379 1120.38684082 C1311.94163159 1113.64432826 1318.7011584 1106.90686488 1325.46074677 1100.16945648 C1331.66162859 1093.98881664 1337.86141189 1087.80708509 1344.05713987 1081.62127829 C1346.49201463 1079.19054447 1348.92794484 1076.76088859 1351.3664093 1074.33375549 C1354.08703025 1071.62515248 1356.80455464 1068.91347672 1359.52148438 1066.20117188 C1360.31753586 1065.41028671 1361.11358734 1064.61940155 1361.9337616 1063.80455017 C1366.05641664 1059.68228348 1370.01674802 1055.4841977 1373.80138397 1051.04846954 C1376.64766624 1047.79548287 1379.73769283 1044.78505505 1382.8125 1041.75 C1383.49626709 1041.07001953 1384.18003418 1040.39003906 1384.88452148 1039.68945312 C1387.77237773 1036.81774857 1390.66623075 1033.95211562 1393.55957031 1031.0859375 C1395.68765725 1028.97607213 1397.81262917 1026.86310355 1399.9375 1024.75 C1400.57937256 1024.11642578 1401.22124512 1023.48285156 1401.88256836 1022.83007812 C1405.67508163 1019.05785097 1409.26578696 1015.17167623 1412.74206543 1011.10559082 C1415.62560451 1007.82887125 1418.75991358 1004.80444436 1421.875 1001.75 C1426.39447185 997.27907716 1430.80080628 992.79700481 1434.90625 987.9375 C1436.48762969 986.12059567 1438.15697196 984.4378872 1439.875 982.75 C1442.88913582 979.78264677 1445.67417333 976.67654708 1448.43359375 973.47265625 C1450.66304061 970.92023117 1452.95501382 968.43112486 1455.25 965.9375 C1460.16834283 960.52954838 1464.85324468 954.9932362 1469.375 949.25 C1469.78298828 948.74645996 1470.19097656 948.24291992 1470.61132812 947.72412109 C1480.36176059 935.62539745 1487.28250338 922.01528289 1494.375 908.25 C1494.89739258 907.24759277 1495.41978516 906.24518555 1495.95800781 905.21240234 C1532.2342711 835.47099456 1554.35789216 758.78469457 1554.578125 679.8515625 C1554.58095238 679.14526073 1554.58377975 678.43895897 1554.58669281 677.71125412 C1554.60154983 673.95788985 1554.6108586 670.20456253 1554.61523438 666.45117188 C1554.6195726 663.4324911 1554.63330118 660.41410365 1554.65625 657.39550781 C1555.17678104 587.40019619 1540.70103148 518.34592869 1512.375 454.25 C1511.90835938 453.19184082 1511.44171875 452.13368164 1510.9609375 451.04345703 C1489.02341025 401.6473604 1458.24957726 351.91668474 1419.16015625 314.03125 C1417.34108032 312.21615454 1415.66983496 310.32766083 1414 308.375 C1408.05210343 301.47869167 1401.54406784 295.13343702 1394.625 289.21875 C1392.28611886 287.172229 1390.01430093 285.06604957 1387.74365234 282.94458008 C1381.49078775 277.10669648 1375.0814464 271.56731964 1368.375 266.25 C1367.33198264 265.41412316 1366.28901588 264.57818316 1365.24609375 263.7421875 C1350.79409618 252.21803868 1335.91433273 241.26330312 1320.375 231.25 C1319.64845215 230.77852539 1318.9219043 230.30705078 1318.17333984 229.82128906 C1307.57183756 222.95610726 1296.82502787 216.47981755 1285.69824219 210.50195312 C1283.33533003 209.22862257 1280.98436418 207.93479327 1278.6328125 206.640625 C1216.15601212 172.66299059 1144.07344351 154.86196878 1073.375 150.25 C1072.19550781 150.16540527 1072.19550781 150.16540527 1070.9921875 150.07910156 C988.31138361 144.23752303 904.85955263 159.38177872 811.375 200.25 C810.38757812 200.69263184 809.40015625 201.13526367 808.3828125 201.59130859 C780.3910959 214.21733765 756.23321765 231.91999668 733.02246094 251.84082031 C731.3469121 253.27402539 729.66273026 254.69649738 727.9765625 256.1171875 C721.03817748 261.98361453 714.29841494 268.01981832 707.69970703 274.2668457 C704.67042319 277.1313021 701.60956886 279.93865585 698.4609375 282.671875 C694.16491362 286.40563279 690.01260953 290.27975767 685.875 294.1875 C685.16730469 294.85201172 684.45960937 295.51652344 683.73046875 296.20117188 C680.2098955 299.51900644 676.74165756 302.87287249 673.34375 306.31640625 C670.80220979 308.87819157 668.2076662 311.3070974 665.46875 313.65625 C660.68799848 317.77404575 656.29861916 322.25537571 651.875 326.75 C650.26295587 328.38791964 648.64840139 330.02337266 647.03125 331.65625 C645.97647461 332.72842773 645.97647461 332.72842773 644.90039062 333.82226562 C642.8250235 335.8173788 640.71610417 337.70537652 638.5390625 339.5859375 C634.54890632 343.05207037 630.80450358 346.70765627 627.09375 350.46875 C626.43596558 351.13032104 625.77818115 351.79189209 625.10046387 352.47351074 C623.02282726 354.56322735 620.94849373 356.65617315 618.875 358.75 C616.1384185 361.513417 613.39837737 364.27333722 610.65625 367.03125 C610.04454956 367.65124878 609.43284912 368.27124756 608.8026123 368.91003418 C605.84626816 371.88281248 602.84909934 374.73797936 599.66210938 377.46289062 C594.57581926 381.85925488 589.87560955 386.63735882 585.14349365 391.40634155 C583.4628576 393.09992862 581.77895371 394.79020777 580.09423828 396.47973633 C576.51831463 400.06699813 572.94635568 403.6581912 569.375 407.25 C565.23120177 411.41752973 561.08572339 415.58335975 556.93597412 419.7449646 C555.29001894 421.39732532 553.64714355 423.05270465 552.00439453 424.70825195 C547.14568187 429.59039831 542.26246168 434.38737648 537.00048828 438.84106445 C535.33883407 440.16191235 535.33883407 440.16191235 534.29897594 441.81551075 C531.18645436 444.13616282 527.69880365 443.65073218 523.96589661 443.61076355 C523.09762023 443.61332682 522.22934386 443.6158901 521.33475608 443.61853105 C518.4141462 443.62348756 515.49404889 443.60694527 512.57348633 443.59057617 C510.48440056 443.5897303 508.39531389 443.59020425 506.30622864 443.59190369 C500.62469166 443.59276663 494.94334357 443.5750924 489.2618506 443.55418181 C483.32811575 443.53546487 477.39437688 443.53366851 471.46061707 443.53010559 C460.21964706 443.52077046 448.97876427 443.4961368 437.73783273 443.46605712 C424.94237194 443.43255878 412.14690706 443.41603859 399.35141337 443.40097082 C373.02589383 443.36958854 346.7004518 443.31679952 320.375 443.25 C321.3140995 442.14481184 322.25459102 441.04080644 323.1956501 439.93728638 C323.98102486 439.01490268 323.98102486 439.01490268 324.78226578 438.07388496 C327.16140797 435.34946201 329.69166546 432.79373625 332.25341797 430.2421875 C332.80715088 429.68670227 333.36088379 429.13121704 333.93139648 428.55889893 C335.74084065 426.74509662 337.55386724 424.93492661 339.3671875 423.125 C340.63996718 421.85154545 341.91259848 420.5779426 343.18508911 419.30419922 C345.84459035 416.64322909 348.50587762 413.98406186 351.16845703 411.32617188 C354.56309878 407.93722106 357.95323834 404.54380768 361.34203911 401.14901733 C363.96720896 398.52021501 366.59477935 395.89382246 369.22305679 393.26812744 C370.47317809 392.0186683 371.72257067 390.76847959 372.97118759 389.51751709 C374.72429855 387.76183586 376.48063633 386.00944349 378.23779297 384.2578125 C378.74194733 383.75163391 379.24610168 383.24545532 379.76553345 382.72393799 C382.50428394 380.00093714 385.31452798 377.41057461 388.23928833 374.88769531 C392.58041604 371.12302352 396.63628365 367.11519647 400.68359375 363.0390625 C401.47170441 362.24949158 402.25981506 361.45992065 403.07180786 360.64642334 C404.76978768 358.94466035 406.46661209 357.24174387 408.16238403 355.53778076 C410.85121768 352.83609729 413.54323814 350.13762547 416.23608398 347.43994141 C421.95187268 341.71276574 427.66375097 335.98170183 433.375 330.25 C439.99698724 323.60429848 446.62066672 316.96030287 453.24856567 310.32049561 C455.89165546 307.67095641 458.53169826 305.01840705 461.17163086 302.36572266 C462.80307333 300.73064527 464.43465771 299.09570945 466.06640625 297.4609375 C467.15455124 296.36504303 467.15455124 296.36504303 468.26467896 295.24700928 C472.24095573 291.2703259 476.32262588 287.49094341 480.58087158 283.81828308 C482.91146659 281.78106396 485.10619591 279.63153712 487.28710938 277.43554688 C488.16161743 276.5577356 489.03612549 275.67992432 489.93713379 274.7755127 C490.85506714 273.84928101 491.77300049 272.92304932 492.71875 271.96875 C493.69676419 270.98631622 494.67508251 270.00418512 495.65368652 269.02233887 C498.73031395 265.93439429 501.80296436 262.84251186 504.875 259.75 C508.44053903 256.16069537 512.00777928 252.57311492 515.57929993 248.98976135 C516.99258629 247.57008843 518.40277111 246.14733001 519.81286621 244.7244873 C524.26919069 240.25133024 528.78146633 235.93851216 533.57312012 231.82702637 C536.36398052 229.38443267 538.96268556 226.76776246 541.5625 224.125 C542.1093042 223.57440918 542.6561084 223.02381836 543.21948242 222.45654297 C544.94049507 220.72349183 546.65817832 218.98720227 548.375 217.25 C561.35559318 204.11531272 561.35559318 204.11531272 567.61328125 198.7890625 C570.69036012 196.10088273 573.51824977 193.16820311 576.375 190.25 C580.64599137 185.92909532 584.94662998 181.74891759 589.5859375 177.8203125 C591.6081628 176.04534619 593.48714627 174.16700977 595.375 172.25 C598.46083999 169.12245947 601.656243 166.21617743 604.98828125 163.35546875 C607.49533496 161.14384526 609.93295959 158.86975312 612.36987305 156.58154297 C617.94599594 151.34620394 623.57866727 146.29277549 629.58203125 141.54296875 C631.99563434 139.56145125 634.31059779 137.52024204 636.62890625 135.4296875 C664.43620882 110.60697598 698.48265909 91.44300138 731.375 74.25 C733.03063965 73.3842334 733.03063965 73.3842334 734.71972656 72.50097656 C807.72745801 34.59660371 891.4041402 7.32037278 1031.87158203 0.98925781 C1036.34678133 1.00063372 1040.82174204 0.99387261 1045.29693317 0.98237324 C1063.43336563 0.94298723 1081.51745413 1.18040059 1099.62890625 2.18359375 C1100.38296124 2.22535988 1101.13701622 2.26712601 1101.91392136 2.31015778 C1148.77697643 4.97174363 1193.72170336 15.26582748 1238.375 29.25 C1239.05987488 29.46418579 1239.74474976 29.67837158 1240.45037842 29.89904785 C1290.30061747 45.53554317 1338.72117196 67.10302756 1383.375 94.25 C1385.02170243 95.2377014 1386.66882315 96.22470585 1388.31640625 97.2109375 C1429.65017247 122.07480748 1469.88899179 152.0116139 1503.65478516 186.56396484 C1505.41659732 188.2907708 1507.24946217 189.8829767 1509.12890625 191.48046875 C1513.18673211 195.01290757 1516.8621779 198.79183237 1520.5 202.75 C1521.80720735 204.16023441 1523.11450113 205.57038872 1524.421875 206.98046875 C1525.07736328 207.68993652 1525.73285156 208.3994043 1526.40820312 209.13037109 C1528.30763621 211.17740163 1530.22090205 213.21028431 1532.140625 215.23828125 C1538.0523192 221.49287747 1543.79646559 227.78640877 1549.171875 234.515625 C1551.20780845 237.04249276 1553.29192675 239.51467827 1555.40283203 241.97851562 C1561.3125869 248.88107656 1566.92262961 255.98143538 1572.375 263.25 C1573.15399658 264.28205566 1573.15399658 264.28205566 1573.94873047 265.33496094 C1598.26899186 297.61522613 1619.1522507 332.19888298 1637.375 368.25 C1638.14215332 369.76013672 1638.14215332 369.76013672 1638.92480469 371.30078125 C1674.57892277 441.9425853 1695.61535387 519.44160667 1703.6875 598 C1703.80973938 599.18778549 1703.80973938 599.18778549 1703.93444824 600.39956665 C1705.99419584 620.73199771 1706.6150393 640.93952772 1706.625 661.375 C1706.62601212 663.25416611 1706.62601212 663.25416611 1706.62704468 665.17129517 C1706.6082155 687.323382 1705.76416908 709.22691701 1703.375 731.25 C1703.29014343 732.03707336 1703.20528687 732.82414673 1703.11785889 733.6350708 C1694.10699072 816.18901716 1668.72209535 893.79645883 1582.890625 1045.3359375 C1580.4713266 1048.1384167 1578.13502825 1050.99214151 1575.8125 1053.875 C1571.93570231 1058.63950808 1567.86028468 1063.1864389 1563.703125 1067.70703125 C1561.76805738 1069.82067054 1559.87291703 1071.95659848 1558 1074.125 C1552.9266008 1079.95526994 1547.63513363 1085.58884927 1542.375 1091.25 C1541.78138672 1091.89018066 1541.18777344 1092.53036133 1540.57617188 1093.18994141 C1538.73990958 1095.16981383 1536.90153859 1097.1477064 1535.0625 1099.125 C1534.50038818 1099.73093994 1533.93827637 1100.33687988 1533.35913086 1100.96118164 C1530.5908851 1103.9313762 1527.78774273 1106.84643834 1524.89453125 1109.6953125 C1522.49143571 1112.07684223 1520.23357013 1114.5257097 1518.03125 1117.09375 C1513.13588306 1122.76494519 1507.73828709 1127.93194652 1502.40234375 1133.18359375 C1501.59925781 1133.97894531 1500.79617187 1134.77429687 1499.96875 1135.59375 C1499.25396484 1136.29693359 1498.53917969 1137.00011719 1497.80273438 1137.72460938 C1495.84601598 1139.76003728 1494.00151236 1141.82426605 1492.16210938 1143.96289062 C1488.05105786 1148.69471726 1483.64061066 1153.09212757 1479.1875 1157.5 C1478.32616455 1158.35754883 1477.4648291 1159.21509766 1476.57739258 1160.09863281 C1472.92486017 1163.73494939 1469.26636365 1167.36524371 1465.60839844 1170.99609375 C1462.92434844 1173.66197597 1460.24336759 1176.3309181 1457.5625 1179 C1456.74563721 1179.80856445 1455.92877441 1180.61712891 1455.0871582 1181.45019531 C1453.92059692 1182.61180176 1453.92059692 1182.61180176 1452.73046875 1183.796875 C1452.05653076 1184.46557617 1451.38259277 1185.13427734 1450.68823242 1185.82324219 C1448.84163278 1187.76046651 1447.10510622 1189.72385335 1445.3684082 1191.7565918 C1440.24231186 1197.6481326 1434.65645937 1203.09161904 1429.125 1208.59765625 C1427.89373809 1209.82699583 1426.66270598 1211.05656563 1425.43188477 1212.28634644 C1422.79407754 1214.92100765 1420.15472854 1217.55411081 1417.51416016 1220.18600464 C1413.33349059 1224.35308161 1409.15670062 1228.52403289 1404.98046875 1232.69555664 C1395.36196362 1242.3020502 1385.7384404 1251.90351162 1376.11486816 1261.50492859 C1367.29020241 1270.30938218 1358.46661512 1279.11490952 1349.64707947 1287.92450237 C1345.5007707 1292.06584764 1341.35204046 1296.20474669 1337.20140076 1300.3417511 C1334.61444316 1302.92121684 1332.02958826 1305.50278195 1329.44528198 1308.08490372 C1328.25258888 1309.27573471 1327.05903664 1310.46570598 1325.86453247 1311.65472031 C1324.22503815 1313.28692029 1322.58873946 1314.92226291 1320.953125 1316.55834961 C1319.58269043 1317.92545326 1319.58269043 1317.92545326 1318.18457031 1319.32017517 C1316.08149479 1321.46677082 1314.10773083 1323.69667526 1312.14910549 1325.97554535 C1308.63936919 1329.99823773 1304.96056564 1333.80427461 1301.17974186 1337.57109928 C1300.48689363 1338.26540095 1299.7940454 1338.95970262 1299.08020177 1339.67504373 C1296.7677436 1341.99113904 1294.4517571 1344.30367262 1292.13575745 1346.6162262 C1290.45641225 1348.29672411 1288.77728503 1349.97743987 1287.09835666 1351.65835422 C1283.45254056 1355.3074724 1279.8051797 1358.9550391 1276.15643501 1362.60122871 C1270.73053941 1368.02333513 1265.30751348 1373.44830499 1259.88503927 1378.87383276 C1250.19928686 1388.5648466 1240.51068021 1398.25300289 1230.82085194 1407.93994118 C1222.34106925 1416.41720723 1213.86221794 1424.89540343 1205.3842907 1433.37452507 C1204.82168973 1433.93720242 1204.25908877 1434.49987977 1203.67943929 1435.07960795 C1201.39559657 1437.36376201 1199.11175738 1439.6479196 1196.827924 1441.932083 C1175.40857687 1463.35448837 1153.98631591 1484.77397781 1132.56274801 1506.19216209 C1113.53376662 1525.21639796 1094.50737197 1544.24321724 1075.4831543 1563.2722168 C1054.10385872 1584.65686827 1032.7229468 1606.03990155 1011.33942837 1627.42033046 C1009.05945742 1629.6999807 1006.77949041 1631.97963486 1004.49952507 1634.2592907 C1003.93814771 1634.82058898 1003.37677035 1635.38188726 1002.79838156 1635.96019458 C994.32510719 1644.432332 985.85306635 1652.90570162 977.38162422 1661.3796711 C967.74816328 1671.01599175 958.11291626 1680.6505225 948.47531361 1690.28270096 C943.08311129 1695.67196847 937.69228288 1701.06260163 932.3034362 1706.45522455 C928.27879763 1710.482372 924.25154685 1714.5068987 920.22327482 1718.53041136 C918.59462132 1720.1579477 916.96681015 1721.78632749 915.33992774 1723.41563422 C913.12761904 1725.63098658 910.91224828 1727.84323212 908.69609928 1730.05474186 C908.06614773 1730.68703458 907.43619618 1731.3193273 906.78715518 1731.9707804 C903.03497907 1735.70728962 899.16339708 1739.2513633 895.14763277 1742.70343673 C892.60305385 1744.9234974 890.21949223 1747.28597881 887.83520508 1749.67626953 C887.33582082 1750.17550493 886.83643656 1750.67474033 886.32191944 1751.18910408 C884.67706788 1752.83464083 883.03580249 1754.48370533 881.39453125 1756.1328125 C880.20460012 1757.32466613 879.01443866 1758.51628983 877.82406616 1759.70770264 C875.2745281 1762.26038587 872.72654813 1764.81461037 870.17977905 1767.37005615 C866.14712409 1771.41630816 862.11059091 1775.4586765 858.07348633 1779.50048828 C849.50435099 1788.08069304 840.93945417 1796.66512304 832.375 1805.25 C823.1269129 1814.52014008 813.87808982 1823.78953866 804.62436581 1833.05405235 C800.6168259 1837.06655443 796.61173229 1841.08147719 792.60853577 1845.09831238 C790.11210695 1847.60223531 787.61357679 1850.10405345 785.11449051 1852.60532379 C783.96236052 1853.75931521 782.81108989 1854.9141654 781.66077805 1856.06996918 C776.30820036 1861.44728095 770.94408257 1866.74081912 765.17443848 1871.67640686 C762.06239654 1874.39786019 759.16936728 1877.33308382 756.25976562 1880.26757812 C755.59845139 1880.93035263 754.93713715 1881.59312714 754.25578308 1882.27598572 C752.83445143 1883.70109348 751.41427499 1885.12735418 749.99516296 1886.55467224 C747.74320944 1888.81950817 745.48804304 1891.0811015 743.23205566 1893.34191895 C738.44354507 1898.14180066 733.65897981 1902.94560304 728.875 1907.75 C723.326873 1913.3218054 717.77709855 1918.891949 712.22306824 1924.45787048 C710.01207313 1926.67530078 707.80413559 1928.89574414 705.59631348 1931.11633301 C704.22777027 1932.48851207 702.85908459 1933.86054907 701.49023438 1935.23242188 C700.58442879 1936.14597694 700.58442879 1936.14597694 699.6603241 1937.07798767 C696.01294385 1940.72581122 692.2297012 1944.14821495 688.32868195 1947.52216339 C685.27383085 1950.22387416 682.40500968 1953.09658535 679.53515625 1955.9921875 C678.90310272 1956.62570129 678.27104919 1957.25921509 677.61984253 1957.91192627 C676.26235254 1959.27319033 674.9060177 1960.63560717 673.55075073 1961.99908447 C671.39961663 1964.16311041 669.24526211 1966.32388478 667.09008789 1968.48388672 C662.51556395 1973.06977722 657.94498802 1977.65958987 653.375 1982.25 C648.07469468 1987.57399103 642.77273742 1992.89631505 637.46652222 1998.2144165 C635.35524075 2000.33212905 633.24701992 2002.45285548 631.13891602 2004.57373047 C629.8310419 2005.88524072 628.52302514 2007.19660875 627.21484375 2008.5078125 C626.63902557 2009.088797 626.0632074 2009.66978149 625.46994019 2010.26837158 C622.52945554 2013.20922988 619.52617463 2016.02275987 616.3807373 2018.7442627 C612.57169038 2022.04060269 608.98847559 2025.50756915 605.44335938 2029.08398438 C604.80155228 2029.72725174 604.15974518 2030.3705191 603.49848938 2031.03327942 C602.11971885 2032.41582472 600.74210349 2033.79952286 599.36555481 2035.1842804 C597.18081418 2037.38190961 594.99285574 2039.57629034 592.80407715 2041.76989746 C588.15822435 2046.42711839 583.51631864 2051.08826095 578.875 2055.75 C573.49208742 2061.15659578 568.10752443 2066.56152634 562.71870422 2071.9622345 C560.57418491 2074.11318631 558.43272516 2076.26715172 556.29138184 2078.42126465 C554.96328469 2079.75299784 553.63504496 2081.08458885 552.30664062 2082.41601562 C551.72147171 2083.00635086 551.1363028 2083.5966861 550.53340149 2084.20491028 C546.89243602 2087.8463315 543.1217442 2091.2821408 539.21395111 2094.6359024 C536.30378103 2097.19023814 533.58926298 2099.92823011 530.875 2102.6875 C530.33875 2103.22826172 529.8025 2103.76902344 529.25 2104.32617188 C527.95595964 2105.63176617 526.66511826 2106.94052996 525.375 2108.25 C521.62094314 2106.68667328 519.24630446 2104.36538346 516.39215088 2101.50093079 C515.90435142 2101.01413461 515.41655197 2100.52733844 514.91397071 2100.02579087 C513.28193277 2098.39470489 511.65714799 2096.75658162 510.03222656 2095.1184082 C508.86280306 2093.94678317 507.69293091 2092.77560579 506.52264404 2091.60484314 C504.00319528 2089.08246059 501.48693674 2086.55695264 498.97309113 2084.02898598 C494.99344494 2080.02705985 491.00671046 2076.03224604 487.01898193 2072.03837585 C480.70663782 2065.71464587 474.39898057 2059.38626457 468.09334731 2053.05584353 C456.81732292 2041.73555708 445.53582172 2030.42073568 434.24898124 2019.11123341 C430.29123546 2015.14510991 426.33631697 2011.17619505 422.38369036 2007.20497 C419.91563168 2004.72621164 417.44549708 2002.24952951 414.97486115 1999.77334023 C413.83562224 1998.63065239 412.69725478 1997.48709492 411.55986023 1996.34257126 C409.9975287 1994.77066985 408.4320241 1993.20199275 406.86578369 1991.63398743 C405.99343204 1990.75811635 405.1210804 1989.88224527 404.22229385 1988.97983265 C402.04966555 1986.89683315 399.85929008 1984.91928961 397.58211899 1982.95669842 C393.04502469 1979.01783048 388.80761892 1974.81565979 384.5703125 1970.55883789 C383.29445786 1969.28320653 383.29445786 1969.28320653 381.99282837 1967.98180485 C379.65300251 1965.64140808 377.31543027 1963.2988022 374.97880554 1960.95521212 C372.45027989 1958.420274 369.9188143 1955.88827472 367.38769531 1953.35592651 C363.00786613 1948.97321898 358.62981485 1944.58874204 354.25292969 1940.20309448 C347.91658832 1933.85416199 341.57697707 1927.5085025 335.23648453 1921.16371596 C324.93714681 1910.8573203 314.63967923 1900.54905845 304.34375 1890.23925781 C303.42061193 1889.31487803 303.42061193 1889.31487803 302.47882462 1888.37182391 C297.48584166 1883.37209678 292.49294946 1878.37227903 287.50006104 1873.3724575 C283.13549979 1869.00184335 278.7709023 1864.63126541 274.40625 1860.26074219 C273.79157993 1859.64524399 273.17690987 1859.0297458 272.54361343 1858.39559615 C262.28459219 1848.12287593 252.02359734 1837.85212923 241.76119995 1827.58278179 C235.43872675 1821.25583574 229.11803438 1814.92712061 222.7996521 1808.59608912 C218.46928225 1804.25727546 214.13713027 1799.92024664 209.80358887 1795.58460069 C207.30612102 1793.08579185 204.80948144 1790.58616994 202.31506348 1788.08431625 C199.60599603 1785.36720404 196.8930179 1782.65401765 194.1796875 1779.94116211 C193.39912994 1779.15700959 192.61857239 1778.37285707 191.81436157 1777.56494236 C188.42534277 1774.1822559 185.01207269 1770.88624277 181.38449097 1767.75949097 C176.85035389 1763.84995814 172.6406891 1759.64828037 168.41845703 1755.40698242 C167.55155306 1754.54022731 166.68464909 1753.67347219 165.7914753 1752.78045177 C163.40604337 1750.39444882 161.02286509 1748.00623585 158.64063358 1745.61704016 C156.06302704 1743.03302247 153.48248185 1740.45194237 150.90228271 1737.87051392 C146.43733002 1733.40268258 141.97415524 1728.93308166 137.512146 1724.46231079 C131.05272756 1717.99030263 124.59004045 1711.52156621 118.12647176 1705.05370319 C107.62747703 1694.54765019 97.13035239 1684.03973097 86.63476562 1673.53027344 C86.00737779 1672.90205779 85.37998995 1672.27384214 84.73359036 1671.62658966 C79.64353315 1666.52978825 74.55356668 1661.43289623 69.46360397 1656.33600044 C65.01418987 1651.88053344 60.56473952 1647.42510264 56.11523438 1642.96972656 C55.48861633 1642.34228039 54.86199828 1641.71483421 54.2163918 1641.06837451 C43.75848803 1630.59677244 33.29861117 1620.12714337 22.83733177 1609.65891361 C16.39202096 1603.20912956 9.94849108 1596.75757611 3.50727034 1590.30370736 C-0.9071991 1585.88079502 -5.3234499 1581.45966668 -9.7410903 1577.03992152 C-12.28716438 1574.49250625 -14.83240979 1571.94427723 -17.37543488 1569.3938179 C-20.13705217 1566.62415813 -22.90257795 1563.85842172 -25.66845703 1561.09301758 C-26.46457838 1560.29330127 -27.26069973 1559.49358496 -28.08094597 1558.66963482 C-31.39508189 1555.3615762 -34.71598687 1552.12629656 -38.28290462 1549.09125423 C-44.87512621 1543.40503171 -50.90830625 1537.10417706 -57.05506897 1530.94691467 C-58.52520224 1529.47793444 -59.99555329 1528.00917214 -61.46610254 1526.54060835 C-65.49572414 1522.51515496 -69.52222856 1518.48659627 -73.54821599 1514.45750868 C-77.89478487 1510.10867572 -82.24423209 1505.76272313 -86.5933075 1501.41639709 C-94.6165805 1493.39731314 -102.63757551 1485.37595602 -110.65738472 1477.3534084 C-118.06674174 1469.94153389 -125.47702988 1462.53059189 -132.88824272 1455.12057304 C-133.38021638 1454.62867577 -133.87219005 1454.13677849 -134.379072 1453.62997523 C-136.37625176 1451.63310683 -138.37343503 1449.63624195 -140.37062412 1447.63938288 C-159.09832491 1428.91473975 -177.82311067 1410.18718399 -196.54659017 1391.45831994 C-213.17420039 1374.82596426 -229.80439374 1358.19619554 -246.43676758 1341.56860352 C-265.13179623 1322.87893175 -283.82520529 1304.18764251 -302.51601118 1285.49374765 C-304.50919529 1283.50024283 -306.50238334 1281.50674195 -308.49557304 1279.51324272 C-308.98633065 1279.02240604 -309.47708826 1278.53156935 -309.98271731 1278.02585883 C-317.38734475 1270.62009485 -324.7932035 1263.2155637 -332.19966316 1255.81163216 C-340.6227673 1247.39138885 -349.0440308 1238.96930943 -357.46304161 1230.54497296 C-361.75830077 1226.24708629 -366.05435451 1221.95000197 -370.35258102 1217.6550827 C-374.28816726 1213.7224789 -378.22143241 1209.78756896 -382.15286916 1205.85081702 C-383.57448557 1204.42808475 -384.99694275 1203.00619199 -386.42033029 1201.58523167 C-399.31741387 1188.70845291 -399.31741387 1188.70845291 -404.34844679 1182.75192541 C-406.29230196 1180.4648876 -408.40274671 1178.3603162 -410.53125 1176.24609375 C-411.87799805 1174.90430054 -411.87799805 1174.90430054 -413.25195312 1173.53540039 C-413.71996338 1173.07150909 -414.18797363 1172.6076178 -414.67016602 1172.12966919 C-416.16214243 1170.65068091 -417.65077553 1169.16839498 -419.13867188 1167.68530273 C-422.29794765 1164.53734751 -425.46116023 1161.3933673 -428.625 1158.25 C-432.29690789 1154.60185217 -435.96709557 1150.95200656 -439.63305664 1147.29788208 C-441.08597908 1145.85134931 -442.54192281 1144.40790833 -443.99804688 1142.96459961 C-448.55062016 1138.42877575 -452.95281554 1133.84221767 -457.13623047 1128.96362305 C-459.1361575 1126.66164079 -461.26522209 1124.51397211 -463.4375 1122.375 C-464.28570312 1121.53453125 -465.13390625 1120.6940625 -466.0078125 1119.828125 C-466.87148438 1118.97734375 -467.73515625 1118.1265625 -468.625 1117.25 C-473.97743978 1111.97744738 -479.21367263 1106.6973736 -484.10546875 1100.9921875 C-486.16783841 1098.62761971 -488.37773176 1096.4381296 -490.625 1094.25 C-494.10933405 1090.80223317 -497.40712816 1087.29086066 -500.58984375 1083.56640625 C-502.77316665 1081.08135734 -505.02417768 1078.67121333 -507.28857422 1076.26025391 C-512.56535552 1070.64021836 -517.65395665 1064.95299539 -522.46875 1058.92578125 C-523.91777175 1057.12762926 -525.39783363 1055.35409526 -526.90625 1053.60546875 C-538.94346822 1039.6336976 -548.98934532 1024.15745003 -558.38867188 1008.32568359 C-559.56463695 1006.35134413 -560.75546863 1004.38702007 -561.953125 1002.42578125 C-567.78635445 992.85184151 -573.28265855 983.10546451 -578.625 973.25 C-579.08245605 972.41033691 -579.53991211 971.57067383 -580.01123047 970.70556641 C-618.66992471 899.39998311 -643.01433634 818.25289966 -655.875 663.125 C-655.87567474 661.8722226 -655.87634949 660.61944519 -655.87704468 659.32870483 C-655.8582155 637.176618 -655.01416908 615.27308299 -652.625 593.25 C-652.54014343 592.46292664 -652.45528687 591.67585327 -652.36785889 590.8649292 C-644.20296889 516.06149426 -623.23364686 443.24980526 -565.23632812 328.92138672 C-563.65171242 326.29428595 -562.09549128 323.65235817 -560.546875 321.00390625 C-553.73114298 309.39643419 -546.36838922 298.25721516 -538.625 287.25 C-538.18446289 286.61900391 -537.74392578 285.98800781 -537.29003906 285.33789062 C-520.57390492 261.40550185 -502.14937057 238.53594542 -482.29296875 217.13671875 C-480.61378123 215.31985261 -478.94767867 213.4907171 -477.30078125 211.64453125 C-470.75273828 204.3372949 -463.86494648 197.38148205 -456.9375 190.4375 C-456.44004272 189.93745453 -455.94258545 189.43740906 -455.43005371 188.92221069 C-450.22220309 183.69301642 -444.97860195 178.55311074 -439.37036133 173.75024414 C-436.78466649 171.52768227 -434.30744481 169.19896258 -431.8125 166.875 C-427.24202095 162.65725913 -422.5556113 158.6404736 -417.70703125 154.7421875 C-415.39335882 152.87130916 -413.10313421 150.98268121 -410.82421875 149.0703125 C-400.40356409 140.34630194 -389.68186491 132.15044291 -378.625 124.25 C-377.26665039 123.27861084 -377.26665039 123.27861084 -375.88085938 122.28759766 C-362.45173651 112.72478498 -348.79305243 103.67953321 -334.625 95.25 C-333.64225098 94.66395996 -332.65950195 94.07791992 -331.64697266 93.47412109 C-255.43192516 48.24509985 -170.93550087 18.07170624 -49.625 1.25 C-48.37928223 1.16314941 -47.13356445 1.07629883 -45.85009766 0.98681641 C-30.5817654 0.0124805 -15.2934175 0.00583957 0 0 Z " fill="#0E3B2C" transform="translate(655.625,-0.25)"/>
<path d="M0 0 C5.24284116 4.3690343 10.51941304 8.83277764 15 14 C15 14.66 15 15.32 15 16 C10.05 16 5.1 16 0 16 C0 10.72 0 5.44 0 0 Z " fill="#0E3B2C" transform="translate(1741,796)"/>
</svg>
