<?xml version="1.0" encoding="UTF-8" standalone="no"?>
<!--
  My Feng Shui Home favicon: a pool-table-green circle with a SOLID
  true-orange heart and the little house knocked out of it (the door
  shows the heart through). Filled solid (not the old thin outline) so
  it reads at 16-32px. The mirror of the Love site's favicon (orange
  circle, solid white heart). Next.js App Router auto-serves this as
  /icon.svg.
-->
<svg xmlns="http://www.w3.org/2000/svg" viewBox="0 0 512 512" width="64" height="64" role="img" aria-label="My Feng Shui Home">
  <circle cx="256" cy="256" r="256" fill="#0e3b2c"/>
  <path d="M256 195 C240 158 190 150 168 175 C150 194 149 223 165 250 C180 278 220 308 256 337 C292 308 332 278 347 250 C363 223 362 194 344 175 C322 150 272 158 256 195 Z" fill="#d9531a"/>
  <path d="M256 205 L212 244 L224 244 L224 292 L288 292 L288 244 L300 244 Z M244 292 L244 262 L268 262 L268 292 Z" fill="#0e3b2c" fill-rule="evenodd"/>
</svg>
